<mxfile host="app.diagrams.net" agent="Mozilla/5.0 (X11; Linux x86_64) AppleWebKit/537.36 (KHTML, like Gecko) Chrome/139.0.0.0 Safari/537.36" version="28.2.0">
  <diagram name="Page-1" id="da2mdgHukwwWWUB-8Ci4">
    <mxGraphModel dx="2896" dy="1119" grid="1" gridSize="10" guides="1" tooltips="1" connect="1" arrows="1" fold="1" page="1" pageScale="1" pageWidth="827" pageHeight="1169" math="0" shadow="0">
      <root>
        <mxCell id="0" />
        <mxCell id="1" parent="0" />
        <mxCell id="zrS2j0rmHHpfhCojANXW-1" value="" style="rounded=1;whiteSpace=wrap;html=1;" vertex="1" parent="1">
          <mxGeometry x="201" y="441" width="120" height="60" as="geometry" />
        </mxCell>
        <mxCell id="zrS2j0rmHHpfhCojANXW-2" value="" style="rounded=1;whiteSpace=wrap;html=1;" vertex="1" parent="1">
          <mxGeometry x="442" y="441" width="120" height="60" as="geometry" />
        </mxCell>
        <mxCell id="zrS2j0rmHHpfhCojANXW-3" value="Long URL" style="text;html=1;align=center;verticalAlign=middle;whiteSpace=wrap;rounded=0;fontStyle=1" vertex="1" parent="1">
          <mxGeometry x="231" y="457" width="60" height="30" as="geometry" />
        </mxCell>
        <mxCell id="zrS2j0rmHHpfhCojANXW-4" value="" style="endArrow=classic;html=1;rounded=0;exitX=1;exitY=0.5;exitDx=0;exitDy=0;entryX=0;entryY=0.5;entryDx=0;entryDy=0;" edge="1" parent="1" source="zrS2j0rmHHpfhCojANXW-1" target="zrS2j0rmHHpfhCojANXW-2">
          <mxGeometry width="50" height="50" relative="1" as="geometry">
            <mxPoint x="511" y="561" as="sourcePoint" />
            <mxPoint x="561" y="511" as="targetPoint" />
          </mxGeometry>
        </mxCell>
        <mxCell id="zrS2j0rmHHpfhCojANXW-5" value="fx" style="text;html=1;align=center;verticalAlign=middle;whiteSpace=wrap;rounded=0;fontFamily=Garamond;fontStyle=1;fontSize=29;" vertex="1" parent="1">
          <mxGeometry x="472" y="457" width="60" height="30" as="geometry" />
        </mxCell>
        <mxCell id="zrS2j0rmHHpfhCojANXW-6" value="" style="rounded=1;whiteSpace=wrap;html=1;" vertex="1" parent="1">
          <mxGeometry x="442" y="601" width="120" height="60" as="geometry" />
        </mxCell>
        <mxCell id="zrS2j0rmHHpfhCojANXW-7" value="" style="endArrow=classic;html=1;rounded=0;exitX=0.5;exitY=1;exitDx=0;exitDy=0;" edge="1" parent="1" source="zrS2j0rmHHpfhCojANXW-2" target="zrS2j0rmHHpfhCojANXW-6">
          <mxGeometry width="50" height="50" relative="1" as="geometry">
            <mxPoint x="511" y="561" as="sourcePoint" />
            <mxPoint x="561" y="511" as="targetPoint" />
          </mxGeometry>
        </mxCell>
        <mxCell id="zrS2j0rmHHpfhCojANXW-8" value="Short Code" style="text;html=1;align=center;verticalAlign=middle;whiteSpace=wrap;rounded=0;fontStyle=1" vertex="1" parent="1">
          <mxGeometry x="463" y="616" width="80" height="30" as="geometry" />
        </mxCell>
        <mxCell id="zrS2j0rmHHpfhCojANXW-9" value="High Level Design of hash function" style="text;html=1;align=center;verticalAlign=middle;whiteSpace=wrap;rounded=0;fontStyle=1;fontSize=20;" vertex="1" parent="1">
          <mxGeometry x="202" y="730" width="359" height="30" as="geometry" />
        </mxCell>
        <mxCell id="zrS2j0rmHHpfhCojANXW-10" value="Hash" style="text;html=1;align=center;verticalAlign=middle;whiteSpace=wrap;rounded=0;" vertex="1" parent="1">
          <mxGeometry x="510" y="530" width="60" height="30" as="geometry" />
        </mxCell>
      </root>
    </mxGraphModel>
  </diagram>
</mxfile>
